G04 ================== begin FILE IDENTIFICATION RECORD ==================*
G04 Layout Name:  AC_CONTROLLER.brd*
G04 Film Name:    PASTEMASK_TOP*
G04 File Format:  Gerber RS274X*
G04 File Origin:  Cadence Allegro 16.6-P004*
G04 Origin Date:  Tue Jun 01 15:10:06 2021*
G04 *
G04 Layer:  VIA CLASS/PASTEMASK_TOP*
G04 Layer:  PIN/PASTEMASK_TOP*
G04 Layer:  PACKAGE GEOMETRY/PASTEMASK_TOP*
G04 *
G04 Offset:    (0.000 0.000)*
G04 Mirror:    No*
G04 Mode:      Positive*
G04 Rotation:  0*
G04 FullContactRelief:  No*
G04 UndefLineWidth:     0.153*
G04 ================== end FILE IDENTIFICATION RECORD ====================*
%FSLAX25Y25*MOMM*%
%IR0*IPPOS*OFA0.00000B0.00000*MIA0B0*SFA1.00000B1.00000*%
%AMMACRO13*
4,1,40,-.325,-.724,
.325,-.724,
.342263,-.72241,
.358988,-.717846,
.374667,-.710447,
.388822,-.700439,
.401025,-.688124,
.410903,-.673877,
.418158,-.658131,
.422568,-.641365,
.424,-.625,
.424,.625,
.42241,.642263,
.417846,.658988,
.410447,.674667,
.400439,.688822,
.388124,.701025,
.373877,.710903,
.358131,.718158,
.341365,.722568,
.325,.724,
-.325,.724,
-.342263,.72241,
-.358988,.717846,
-.374667,.710447,
-.388822,.700439,
-.401025,.688124,
-.410903,.673877,
-.418158,.658131,
-.422568,.641365,
-.424,.625,
-.424,-.625,
-.42241,-.642263,
-.417846,-.658988,
-.410447,-.674667,
-.400439,-.688822,
-.388124,-.701025,
-.373877,-.710903,
-.358131,-.718158,
-.341365,-.722568,
-.325,-.724,
0.0*
%
%ADD13MACRO13*%
%ADD10C,4.*%
%ADD12C,1.5*%
%ADD19C,1.8*%
%ADD15R,1.5X1.5*%
%ADD18R,2.15X.95*%
%ADD16R,1.8X1.8*%
%AMMACRO17*
4,1,40,.325,.724,
-.325,.724,
-.342263,.72241,
-.358988,.717846,
-.374667,.710447,
-.388822,.700439,
-.401025,.688124,
-.410903,.673877,
-.418158,.658131,
-.422568,.641365,
-.424,.625,
-.424,-.625,
-.42241,-.642263,
-.417846,-.658988,
-.410447,-.674667,
-.400439,-.688822,
-.388124,-.701025,
-.373877,-.710903,
-.358131,-.718158,
-.341365,-.722568,
-.325,-.724,
.325,-.724,
.342263,-.72241,
.358988,-.717846,
.374667,-.710447,
.388822,-.700439,
.401025,-.688124,
.410903,-.673877,
.418158,-.658131,
.422568,-.641365,
.424,-.625,
.424,.625,
.42241,.642263,
.417846,.658988,
.410447,.674667,
.400439,.688822,
.388124,.701025,
.373877,.710903,
.358131,.718158,
.341365,.722568,
.325,.724,
0.0*
%
%ADD17MACRO17*%
%ADD11R,1.8X1.3*%
%ADD14R,1.75X1.*%
%ADD20R,2.15X3.25*%
%LPD*%
G75*
G54D10*
X-2920000Y-1145000D03*
Y1145000D03*
X2920000Y-1145000D03*
Y1145000D03*
G54D20*
X2930000Y-327500D03*
G54D11*
X-2357500Y-352500D03*
Y-202500D03*
Y-52500D03*
Y97500D03*
Y247500D03*
Y397500D03*
X-557500Y-352500D03*
Y-502500D03*
Y-652500D03*
Y-802500D03*
Y397500D03*
Y247500D03*
Y97500D03*
Y-52500D03*
Y-202500D03*
Y547500D03*
G54D12*
X-55000Y-1120000D03*
X145000D03*
X345000D03*
X1885000Y-1110000D03*
X2085000D03*
X2285000D03*
G54D13*
X-27500Y752500D03*
X157500D03*
X482500D03*
X667500D03*
X1150000Y-1120000D03*
X1335000D03*
X1155000Y-847500D03*
X1340000D03*
X1587500Y512500D03*
X2140000Y275000D03*
X2325000D03*
X1772500Y512500D03*
X2140000Y485000D03*
X2325000D03*
G54D14*
X380000Y1200000D03*
X1155000D03*
G54D15*
X545000Y-1120000D03*
X2485000Y-1110000D03*
G54D16*
X1725000Y1255000D03*
G54D17*
X1915000Y-322500D03*
X1730000D03*
X1917500Y-97500D03*
X1732500D03*
G54D18*
X2350000Y-327500D03*
Y-557500D03*
Y-97500D03*
G54D19*
X2233000Y1255000D03*
X1979000D03*
X2487000D03*
M02*
