G04 ================== begin FILE IDENTIFICATION RECORD ==================*
G04 Layout Name:  AC_CONTROLLER.brd*
G04 Film Name:    SILKSCREEN_TOP*
G04 File Format:  Gerber RS274X*
G04 File Origin:  Cadence Allegro 16.6-P004*
G04 Origin Date:  Tue Jun 01 15:10:06 2021*
G04 *
G04 Layer:  PACKAGE GEOMETRY/SILKSCREEN_TOP*
G04 Layer:  MANUFACTURING/AUTOSILK_TOP*
G04 Layer:  BOARD GEOMETRY/SILKSCREEN_TOP*
G04 *
G04 Offset:    (0.000 0.000)*
G04 Mirror:    No*
G04 Mode:      Positive*
G04 Rotation:  0*
G04 FullContactRelief:  No*
G04 UndefLineWidth:     0.153*
G04 ================== end FILE IDENTIFICATION RECORD ====================*
%FSLAX25Y25*MOMM*%
%IR0*IPPOS*OFA0.00000B0.00000*MIA0B0*SFA1.00000B1.00000*%
%ADD10C,.1*%
%ADD11C,.2*%
%ADD12C,.153*%
G75*
%LPD*%
G75*
G36*
G01X-682500Y632500D02*
Y-917500D01*
X-2232500D01*
Y632500D01*
X-682500D01*
G37*
G54D10*
G01X628500Y-1206400D02*
X-141100D01*
Y-1033600D01*
X631100D01*
Y-1206400D01*
X628500D01*
G01X475400Y1200000D02*
X726900D01*
X759900Y1233000D01*
G01X1057100Y1205100D02*
X770000D01*
X767500Y1202500D01*
G01X2568500Y-1196400D02*
X1798900D01*
Y-1023600D01*
X2571100D01*
Y-1196400D01*
X2568500D01*
G54D11*
G01X65000Y825000D02*
Y680000D01*
G01X575000Y825000D02*
Y680000D01*
G01X1242500Y-1047500D02*
Y-1192500D01*
G01X1247500Y-775000D02*
Y-920000D01*
G01X1822500Y-395000D02*
Y-250000D01*
G01X2232500Y347500D02*
Y202500D01*
G01X1825000Y-170000D02*
Y-25000D01*
G01X1680000Y585000D02*
Y440000D01*
G01X2232500Y557500D02*
Y412500D01*
G54D12*
G01X-2714300Y-1145000D02*
G03I-205700J0D01*
G01Y1145000D02*
G03I-205700J0D01*
G01X-44600Y-915000D02*
Y-711800D01*
X16400D01*
X36700Y-722000D01*
X51900Y-745700D01*
X57000Y-772800D01*
X51900Y-799900D01*
X39200Y-820200D01*
X16400Y-830300D01*
X-44600D01*
G01X178900Y-711800D02*
X239900D01*
G01X209400D02*
Y-915000D01*
G01X178900D02*
X239900D01*
G01X361800D02*
Y-711800D01*
X425300D01*
X445600Y-722000D01*
X458300Y-735500D01*
X463400Y-762600D01*
X458300Y-789700D01*
X443100Y-806600D01*
X425300Y-816800D01*
X361800D01*
G01X425300D02*
X463400Y-915000D01*
G01X649300Y-342700D02*
Y317700D01*
X1055700D01*
Y-342700D01*
X649300D01*
G01X725500Y266900D02*
G03I-25400J0D01*
G01X787400Y802500D02*
Y962500D01*
X837100D01*
X853100Y954500D01*
X863000Y943800D01*
X867000Y922500D01*
X863000Y901200D01*
X851100Y887800D01*
X837100Y879800D01*
X787400D01*
G01X837100D02*
X867000Y802500D01*
G01X945400Y823800D02*
X961300Y810500D01*
X979200Y802500D01*
X995200D01*
X1011100Y810500D01*
X1023000Y823800D01*
X1029000Y842500D01*
X1025000Y861200D01*
X1015100Y877200D01*
X997100Y887800D01*
X973300Y893200D01*
X959300Y903800D01*
X953400Y922500D01*
X957400Y941200D01*
X967300Y954500D01*
X981200Y962500D01*
X995200D01*
X1009100Y957200D01*
X1021000Y943800D01*
G01X1147200Y962500D02*
Y802500D01*
G01X1101400Y962500D02*
X1193000D01*
G01X1515400Y972900D02*
X1525000Y958100D01*
X1537900Y949600D01*
X1552400Y947500D01*
X1565200Y949600D01*
X1578100Y960200D01*
X1586100Y972900D01*
X1587700Y985600D01*
X1584500Y1000400D01*
X1573300Y1011000D01*
X1562000Y1015200D01*
X1547500D01*
G01X1562000D02*
X1571700Y1021600D01*
X1579700Y1032200D01*
X1582900Y1044900D01*
X1579700Y1057600D01*
X1571700Y1068100D01*
X1557200Y1074500D01*
X1542700Y1072400D01*
X1528200Y1063900D01*
G01X1640000Y1074500D02*
X1680200Y947500D01*
X1720500Y1074500D01*
G01X1774400Y972900D02*
X1784000Y958100D01*
X1796900Y949600D01*
X1811400Y947500D01*
X1824200Y949600D01*
X1837100Y960200D01*
X1845100Y972900D01*
X1846700Y985600D01*
X1843500Y1000400D01*
X1832300Y1011000D01*
X1821000Y1015200D01*
X1806500D01*
G01X1821000D02*
X1830700Y1021600D01*
X1838700Y1032200D01*
X1841900Y1044900D01*
X1838700Y1057600D01*
X1830700Y1068100D01*
X1816200Y1074500D01*
X1801700Y1072400D01*
X1787200Y1063900D01*
G01X2606000Y1115300D02*
Y1394700D01*
X1606000D01*
Y1115300D01*
X2606000D01*
G01X2013200Y-701800D02*
X2074200D01*
G01X2043700D02*
Y-905000D01*
G01X2013200D02*
X2074200D01*
G01X2297700D02*
X2196100D01*
Y-701800D01*
X2297700D01*
G01X2257100Y-800000D02*
X2196100D01*
G01X1832900Y777100D02*
X1853200Y760200D01*
X1876000Y750000D01*
X1896400D01*
X1916700Y760200D01*
X1931900Y777100D01*
X1939500Y800800D01*
X1934500Y824500D01*
X1921800Y844800D01*
X1898900Y858400D01*
X1868400Y865100D01*
X1850600Y878700D01*
X1843000Y902400D01*
X1848100Y926100D01*
X1860800Y943000D01*
X1878600Y953200D01*
X1896400D01*
X1914100Y946400D01*
X1929400Y929500D01*
G01X2013200Y953200D02*
X2048800Y750000D01*
X2089400Y953200D01*
X2130000Y750000D01*
X2165600Y953200D01*
G01X2236700Y750000D02*
Y953200D01*
X2287500D01*
X2307800Y943000D01*
X2323100Y929500D01*
X2335800Y909200D01*
X2345900Y885500D01*
X2348500Y851600D01*
X2345900Y817700D01*
X2335800Y794000D01*
X2323100Y773700D01*
X2307800Y760200D01*
X2287500Y750000D01*
X2236700D01*
G01X2372900Y1026000D02*
X2405100D01*
Y987900D01*
X2395400Y975200D01*
X2384200Y966700D01*
X2368100Y962500D01*
X2352000Y966700D01*
X2340700Y975200D01*
X2331100Y987900D01*
X2324600Y1002700D01*
X2321400Y1019600D01*
Y1034500D01*
X2324600Y1047200D01*
X2331100Y1062000D01*
X2340700Y1074700D01*
X2350400Y1083100D01*
X2363200Y1089500D01*
X2374500D01*
X2387400Y1085300D01*
X2397000Y1076800D01*
G01X2455800Y962500D02*
Y1089500D01*
X2529700Y962500D01*
Y1089500D01*
G01X2586900Y962500D02*
Y1089500D01*
X2619000D01*
X2631900Y1083100D01*
X2641600Y1074700D01*
X2649600Y1062000D01*
X2656000Y1047200D01*
X2657600Y1026000D01*
X2656000Y1004800D01*
X2649600Y990000D01*
X2641600Y977300D01*
X2631900Y968800D01*
X2619000Y962500D01*
X2586900D01*
G01X3125700Y-1145000D02*
G03I-205700J0D01*
G01X2477000Y-544800D02*
Y-105400D01*
X2792000D01*
Y-544800D01*
X2477000D01*
G01X2857800Y160700D02*
X3137200D01*
Y719500D01*
X2857800D01*
Y160700D01*
G01X3125700Y1145000D02*
G03I-205700J0D01*
M02*
