G04 ================== begin FILE IDENTIFICATION RECORD ==================*
G04 Layout Name:  AC_CONTROLLER.brd*
G04 Film Name:    TOP*
G04 File Format:  Gerber RS274X*
G04 File Origin:  Cadence Allegro 16.6-P004*
G04 Origin Date:  Tue Jun 01 15:06:29 2021*
G04 *
G04 Layer:  ETCH/TOP*
G04 Layer:  PIN/TOP*
G04 Layer:  VIA CLASS/TOP*
G04 *
G04 Offset:    (0.000 0.000)*
G04 Mirror:    No*
G04 Mode:      Positive*
G04 Rotation:  0*
G04 FullContactRelief:  No*
G04 UndefLineWidth:     0.000*
G04 ================== end FILE IDENTIFICATION RECORD ====================*
%FSLAX25Y25*MOMM*%
%IR0*IPPOS*OFA0.00000B0.00000*MIA0B0*SFA1.00000B1.00000*%
%AMMACRO14*
4,1,40,-.325,-.724,
.325,-.724,
.342263,-.72241,
.358988,-.717846,
.374667,-.710447,
.388822,-.700439,
.401025,-.688124,
.410903,-.673877,
.418158,-.658131,
.422568,-.641365,
.424,-.625,
.424,.625,
.42241,.642263,
.417846,.658988,
.410447,.674667,
.400439,.688822,
.388124,.701025,
.373877,.710903,
.358131,.718158,
.341365,.722568,
.325,.724,
-.325,.724,
-.342263,.72241,
-.358988,.717846,
-.374667,.710447,
-.388822,.700439,
-.401025,.688124,
-.410903,.673877,
-.418158,.658131,
-.422568,.641365,
-.424,.625,
-.424,-.625,
-.42241,-.642263,
-.417846,-.658988,
-.410447,-.674667,
-.400439,-.688822,
-.388124,-.701025,
-.373877,-.710903,
-.358131,-.718158,
-.341365,-.722568,
-.325,-.724,
0.0*
%
%ADD14MACRO14*%
%ADD10C,4.*%
%ADD12C,1.5*%
%ADD21C,1.8*%
%ADD17R,1.651X.33*%
%ADD16R,1.5X1.5*%
%ADD20R,2.15X.95*%
%ADD18R,1.8X1.8*%
%ADD23C,1.849*%
%ADD24R,1.849X1.849*%
%AMMACRO19*
4,1,40,.325,.724,
-.325,.724,
-.342263,.72241,
-.358988,.717846,
-.374667,.710447,
-.388822,.700439,
-.401025,.688124,
-.410903,.673877,
-.418158,.658131,
-.422568,.641365,
-.424,.625,
-.424,-.625,
-.42241,-.642263,
-.417846,-.658988,
-.410447,-.674667,
-.400439,-.688822,
-.388124,-.701025,
-.373877,-.710903,
-.358131,-.718158,
-.341365,-.722568,
-.325,-.724,
.325,-.724,
.342263,-.72241,
.358988,-.717846,
.374667,-.710447,
.388822,-.700439,
.401025,-.688124,
.410903,-.673877,
.418158,-.658131,
.422568,-.641365,
.424,-.625,
.424,.625,
.42241,.642263,
.417846,.658988,
.410447,.674667,
.400439,.688822,
.388124,.701025,
.373877,.710903,
.358131,.718158,
.341365,.722568,
.325,.724,
0.0*
%
%ADD19MACRO19*%
%ADD11R,1.8X1.3*%
%ADD15R,1.75X1.*%
%ADD22R,2.15X3.25*%
%ADD13C,.61*%
%ADD25C,1.016*%
%ADD26C,.127*%
%ADD27C,.254*%
%ADD28C,.508*%
%ADD37C,2.108*%
%ADD36C,2.058*%
%ADD30C,4.258*%
%ADD31C,1.758*%
%ADD35R,2.408X1.208*%
%ADD33R,2.008X1.258*%
%ADD34R,2.058X2.058*%
%ADD29R,2.058X9.058*%
%ADD32R,1.758X1.758*%
G75*
%LPD*%
G75*
G36*
G01X-3140000Y-1470000D02*
G02X-3220000Y-1390000I0J80000D01*
G01Y642500D01*
X-247500D01*
Y1470000D01*
X3140000D01*
G02X3220000Y1390000I0J-80000D01*
G01Y-1390000D01*
G02X3140000Y-1470000I-80000J0D01*
G01X-3140000D01*
G37*
%LPC*%
G75*
G36*
G01X2195300Y547500D02*
Y422500D01*
G02X2172500Y399700I-22846J46D01*
G01X2107500D01*
G02X2084700Y422500I46J22846D01*
G01Y547500D01*
G02X2107500Y570300I22846J-46D01*
G01X2172500D01*
G02X2195300Y547500I-46J-22846D01*
G37*
G36*
G01X1827800Y575000D02*
Y450000D01*
G02X1805000Y427200I-22846J46D01*
G01X1740000D01*
G02X1717200Y450000I46J22846D01*
G01Y575000D01*
G02X1740000Y597800I22846J-46D01*
G01X1805000D01*
G02X1827800Y575000I-46J-22846D01*
G37*
G36*
G01X1677200Y-160000D02*
Y-35000D01*
G02X1700000Y-12200I22846J-46D01*
G01X1765000D01*
G02X1787800Y-35000I-46J-22846D01*
G01Y-160000D01*
G02X1765000Y-182800I-22846J46D01*
G01X1700000D01*
G02X1677200Y-160000I46J22846D01*
G37*
G36*
G01X1674700Y-385000D02*
Y-260000D01*
G02X1697500Y-237200I22846J-46D01*
G01X1762500D01*
G02X1785300Y-260000I-46J-22846D01*
G01Y-385000D01*
G02X1762500Y-407800I-22846J46D01*
G01X1697500D01*
G02X1674700Y-385000I46J22846D01*
G37*
G36*
G01X722800Y815000D02*
Y690000D01*
G02X700000Y667200I-22846J46D01*
G01X635000D01*
G02X612200Y690000I46J22846D01*
G01Y815000D01*
G02X635000Y837800I22846J-46D01*
G01X700000D01*
G02X722800Y815000I-46J-22846D01*
G37*
G36*
G01X2070000Y886900D02*
X1858100D01*
X1810400Y839200D01*
X1810700Y836800D01*
G02X1771800Y875700I-43200J-4300D01*
G01X1774200Y875400D01*
X1836900Y938100D01*
X2070000D01*
G02Y886900I35000J-25600D01*
G37*
G36*
G01X-9400Y600000D02*
G02X-60600I-25600J-35000D01*
G01Y657800D01*
X-56100Y662300D01*
X-61000Y667200D01*
X-62700Y667400D01*
G02X-82800Y690000I2734J22670D01*
G01Y815000D01*
G02X-60000Y837800I22846J-46D01*
G01X5000D01*
G02X27800Y815000I-46J-22846D01*
G01Y690000D01*
G02X5000Y667200I-22846J46D01*
G01X-1900D01*
Y644100D01*
X-9400Y636600D01*
Y600000D01*
G37*
G36*
G01X2743900Y528800D02*
X2712500Y497500D01*
G02X2622500Y587500I-45000J45000D01*
G01X2691100Y656200D01*
X2892200D01*
Y697800D01*
X3102800D01*
Y487200D01*
X2892200D01*
Y528800D01*
X2743900D01*
G37*
G36*
G01X212800Y726900D02*
Y690000D01*
G02X190000Y667200I-22846J46D01*
G01X125000D01*
G02X102200Y690000I46J22846D01*
G01Y815000D01*
G02X125000Y837800I22846J-46D01*
G01X190000D01*
G02X212800Y815000I-46J-22846D01*
G01Y778100D01*
X427200D01*
Y801600D01*
X354400Y874400D01*
Y1137100D01*
X279600D01*
Y1262900D01*
X480400D01*
Y1137100D01*
X405600D01*
Y895600D01*
X463400Y837800D01*
X515000D01*
G02X537800Y815000I-46J-22846D01*
G01Y703400D01*
X733900Y507400D01*
G03X740900Y507200I3605J3573D01*
G02X735000Y449400I29111J-32173D01*
G01X719400D01*
X501600Y667200D01*
X450000D01*
G02X427200Y690000I46J22846D01*
G01Y726900D01*
X212800D01*
G37*
G36*
G01X2195300Y212500D02*
G02X2172500Y189700I-22846J46D01*
G01X2107500D01*
G02X2084700Y212500I46J22846D01*
G01Y236700D01*
X2075300D01*
X2047800Y209200D01*
X1935400D01*
G02Y285800I-20400J38300D01*
G01X2016000D01*
X2043500Y313300D01*
X2084700D01*
Y337500D01*
G02X2107500Y360300I22846J-46D01*
G01X2172500D01*
G02X2195300Y337500I-46J-22846D01*
G01Y212500D01*
G37*
G36*
G01X1972200Y-165100D02*
G02X1950000Y-182800I-22255J5141D01*
G01X1885000D01*
G02X1862200Y-160000I46J22846D01*
G01Y-129100D01*
X1861600Y-128000D01*
G02Y-67000I55900J30500D01*
G01X1862200Y-65900D01*
Y-35000D01*
G02X1885000Y-12200I22846J-46D01*
G01X1950000D01*
G02X1972200Y-29900I-55J-22841D01*
G01X1973100Y-33800D01*
X2494700D01*
X2497200Y-31300D01*
X2625000D01*
G02Y-158700I0J-63700D01*
G01X2550000D01*
X2547500Y-161200D01*
X1973100D01*
X1972200Y-165100D01*
G37*
G36*
G01X1555000Y597800D02*
X1606600D01*
X1734400Y725600D01*
X2150000D01*
G02Y674400I35000J-25600D01*
G01X1755600D01*
X1642800Y561600D01*
Y450000D01*
G02X1620000Y427200I-22846J46D01*
G01X1613100D01*
Y359400D01*
X1443100Y189400D01*
X1237000D01*
G03X1234800Y179700I-4J-5099D01*
G01X1238100Y178100D01*
X1580000D01*
G02Y126900I35000J-25600D01*
G01X1260500D01*
X1258100Y124500D01*
X1235000D01*
Y-19400D01*
X1452500D01*
G02Y-70600I35000J-25600D01*
G01X1235000D01*
Y-334500D01*
X1044000D01*
Y309500D01*
X1235000D01*
Y240700D01*
X1258100D01*
X1258200Y240600D01*
X1421900D01*
X1561900Y380600D01*
Y427200D01*
X1555000D01*
G02X1532200Y450000I46J22846D01*
G01Y575000D01*
G02X1555000Y597800I22846J-46D01*
G37*
G36*
G01X1598100Y-794400D02*
X2417500D01*
G02Y-845600I35000J-25600D01*
G01X1576900D01*
X1531700Y-800400D01*
X1529300Y-800700D01*
G02X1568200Y-761800I-4300J43200D01*
G01X1567900Y-764200D01*
X1598100Y-794400D01*
G37*
G36*
G01X1302500Y-1205300D02*
G02X1279700Y-1182500I46J22846D01*
G01Y-1057500D01*
G02X1302500Y-1034700I22846J-46D01*
G01X1309400D01*
Y-933200D01*
X1304900Y-932600D01*
G02X1284700Y-910000I2630J22678D01*
G01Y-785000D01*
G02X1307500Y-762200I22846J-46D01*
G01X1372500D01*
G02X1395300Y-785000I-46J-22846D01*
G01Y-910000D01*
G02X1372500Y-932800I-22846J46D01*
G01X1365600D01*
Y-955900D01*
X1360600Y-960900D01*
Y-1034700D01*
X1367500D01*
G02X1390300Y-1057500I-46J-22846D01*
G01Y-1182500D01*
G02X1367500Y-1205300I-22846J46D01*
G01X1302500D01*
G37*
G36*
G01X1182500Y-1034700D02*
G02X1205300Y-1057500I-46J-22846D01*
G01Y-1182500D01*
G02X1182500Y-1205300I-22846J46D01*
G01X1117500D01*
G02X1094700Y-1182500I46J22846D01*
G01Y-1145600D01*
X1024400D01*
X989200Y-1110400D01*
X986800Y-1110700D01*
G02X1025700Y-1071800I-4300J43200D01*
G01X1025400Y-1074200D01*
X1045600Y-1094400D01*
X1094700D01*
Y-1057500D01*
G02X1117500Y-1034700I22846J-46D01*
G01X1182500D01*
G37*
G36*
G01X183700Y-931300D02*
G02X122100Y-955800I-41162J13803D01*
G01X-433400D01*
X-508800Y-880400D01*
X-660400D01*
Y625400D01*
X-454600D01*
Y423100D01*
X-431500D01*
X65600Y-74000D01*
Y-121900D01*
X155600Y-211900D01*
X470000D01*
Y59400D01*
X446900D01*
X444400Y61900D01*
X247500D01*
G02Y113100I-35000J25600D01*
G01X470000D01*
Y309500D01*
X661000D01*
Y305700D01*
X684100D01*
X704200Y285600D01*
X855000D01*
G02Y234400I35000J-25600D01*
G01X683000D01*
X678400Y239000D01*
G03X661000Y231800I-7219J-7179D01*
G01Y-19400D01*
X689400D01*
X727100Y18300D01*
X726800Y20700D01*
G02X765700Y-18200I43200J4300D01*
G01X763300Y-17900D01*
X710600Y-70600D01*
X661000D01*
Y-146900D01*
X770000D01*
G02Y-198100I35000J-25600D01*
G01X686700D01*
X684100Y-200700D01*
X661000D01*
Y-334500D01*
X470000D01*
Y-330700D01*
X446900D01*
X444300Y-328100D01*
X134400D01*
X-415600Y221900D01*
X-454600D01*
Y-826200D01*
X-401600Y-879200D01*
X122100D01*
G02X128700Y-876300I20707J-38165D01*
G01X129900Y-876000D01*
X196600Y-809200D01*
X1099700D01*
Y-785000D01*
G02X1113600Y-764000I22853J-26D01*
G01X1116700Y-762700D01*
Y-752800D01*
X1114200Y-750300D01*
Y-556600D01*
X1236600Y-434200D01*
X1876700D01*
Y-407300D01*
X1873600Y-406000D01*
G02X1859700Y-385000I8953J21026D01*
G01Y-354100D01*
X1859100Y-353000D01*
G02Y-292000I55900J30500D01*
G01X1859700Y-290900D01*
Y-260000D01*
G02X1882500Y-237200I22846J-46D01*
G01X1947500D01*
G02X1969700Y-254900I-55J-22841D01*
G01X1970600Y-258800D01*
X2047400D01*
X2052400Y-263800D01*
X2809600D01*
Y-152100D01*
X3050400D01*
Y-502900D01*
X2809600D01*
Y-391200D01*
X1999600D01*
X1994600Y-386200D01*
X1970600D01*
X1969700Y-390100D01*
G02X1956400Y-406000I-22269J5115D01*
G01X1953300Y-407300D01*
Y-452100D01*
G02X1894600Y-510800I-38300J-20400D01*
G01X1268400D01*
X1190800Y-588400D01*
Y-718500D01*
X1193300Y-721000D01*
Y-762700D01*
X1196400Y-764000D01*
G02X1210300Y-785000I-8953J-21026D01*
G01Y-910000D01*
G02X1187500Y-932800I-22846J46D01*
G01X1122500D01*
G02X1099700Y-910000I46J22846D01*
G01Y-885800D01*
X228400D01*
X184000Y-930100D01*
X183700Y-931300D01*
G37*
G36*
G01X2380300Y212500D02*
G02X2357500Y189700I-22846J46D01*
G01X2292500D01*
G02X2269700Y212500I46J22846D01*
G01Y337500D01*
G02X2292500Y360300I22846J-46D01*
G01X2299400D01*
Y399700D01*
X2292500D01*
G02X2269700Y422500I46J22846D01*
G01Y547500D01*
G02X2292500Y570300I22846J-46D01*
G01X2357500D01*
G02X2380300Y547500I-46J-22846D01*
G01Y422500D01*
G02X2357500Y399700I-22846J46D01*
G01X2350600D01*
Y360300D01*
X2357500D01*
G02X2380300Y337500I-46J-22846D01*
G01Y212500D01*
G37*
G54D37*
X2997500Y287700D03*
G54D36*
X2233000Y1255000D03*
X1979000D03*
X2487000D03*
G54D30*
X-2920000Y-1145000D03*
X2920000D03*
Y1145000D03*
G54D31*
X-55000Y-1120000D03*
X145000D03*
X345000D03*
X1885000Y-1110000D03*
X2085000D03*
X2285000D03*
G54D35*
X2350000Y-557500D03*
G54D33*
X1155000Y1200000D03*
G54D34*
X1725000Y1255000D03*
G54D29*
X-2357500Y22500D03*
G54D32*
X545000Y-1120000D03*
X2485000Y-1110000D03*
%LPD*%
G75*
G54D10*
X-2920000Y-1145000D03*
Y1145000D03*
X2920000Y-1145000D03*
Y1145000D03*
G54D11*
X-2357500Y-352500D03*
Y-202500D03*
Y-52500D03*
Y97500D03*
Y247500D03*
Y397500D03*
X-557500Y-352500D03*
Y-502500D03*
Y-652500D03*
Y-802500D03*
Y397500D03*
Y247500D03*
Y97500D03*
Y-52500D03*
Y-202500D03*
Y547500D03*
G54D20*
X2350000Y-327500D03*
Y-557500D03*
Y-97500D03*
G54D21*
X2233000Y1255000D03*
X1979000D03*
X2487000D03*
G54D12*
X-55000Y-1120000D03*
X145000D03*
X345000D03*
X1885000Y-1110000D03*
X2085000D03*
X2285000D03*
G54D13*
X142500Y-917500D03*
X212500Y87500D03*
X-35000Y565000D03*
X982500Y-1067500D03*
X770000Y25000D03*
X805000Y-172500D03*
X890000Y260000D03*
X770000Y475000D03*
X1525000Y-757500D03*
X1615000Y152500D03*
X1487500Y-45000D03*
X1915000Y-472500D03*
Y247500D03*
X1767500Y832500D03*
X2105000Y912500D03*
X2185000Y700000D03*
X2452500Y-820000D03*
X2625000Y-95000D03*
X2667500Y542500D03*
G54D22*
X2930000Y-327500D03*
G54D23*
X2997500Y287700D03*
G54D14*
X-27500Y752500D03*
X157500D03*
X482500D03*
X667500D03*
X1150000Y-1120000D03*
X1335000D03*
X1155000Y-847500D03*
X1340000D03*
X1587500Y512500D03*
X2140000Y275000D03*
X2325000D03*
X1772500Y512500D03*
X2140000Y485000D03*
X2325000D03*
G54D15*
X380000Y1200000D03*
X1155000D03*
G54D24*
X2997500Y592500D03*
G54D25*
G01X2350000Y-327500D02*
X2930000D01*
G01X2350000D02*
X2026000D01*
X2021000Y-322500D01*
X1915000D01*
G01X2350000Y-97500D02*
X1917500D01*
G01X2625000Y-95000D02*
X2523600D01*
X2521100Y-97500D01*
X2350000D01*
G01X2997500Y592500D02*
X2717500D01*
X2667500Y542500D01*
G54D16*
X545000Y-1120000D03*
X2485000Y-1110000D03*
G54D26*
G01X-2357500Y-435500D02*
Y-352500D01*
G01X-2465500D02*
X-2357500D01*
G01D02*
X-2249500D01*
G01X-665500Y-502500D02*
X-557500D01*
G01D02*
X-449500D01*
G01X-557500Y547500D02*
Y630500D01*
G01X-665500Y547500D02*
X-557500D01*
G01D02*
X-449500D01*
G01X-55000Y-1213000D02*
Y-1120000D01*
G01D02*
Y-1027000D01*
G01X-148000Y-1120000D02*
X-55000D01*
G01D02*
X38000D01*
G01X464900Y20000D02*
X565500D01*
G01D02*
X666100D01*
G01X667500Y662100D02*
Y752500D01*
G01D02*
Y842900D01*
G01X607100Y752500D02*
X667500D01*
G01D02*
X727900D01*
G01X1672100Y-97500D02*
X1732500D01*
G01X1669600Y-322500D02*
X1730000D01*
G01X1155000Y1132000D02*
Y1200000D01*
G01D02*
Y1268000D01*
G01X1049500Y1200000D02*
X1155000D01*
G01D02*
X1260500D01*
G01X1885000Y-1203000D02*
Y-1110000D01*
G01D02*
Y-1017000D01*
G01X1792000Y-1110000D02*
X1885000D01*
G01D02*
X1978000D01*
G01X2224500Y-557500D02*
X2350000D01*
G01X1730000Y-412900D02*
Y-322500D01*
G01X1732500Y-187900D02*
Y-97500D01*
G01D02*
Y-7100D01*
G01Y-97500D02*
X1792900D01*
G01X1730000Y-322500D02*
Y-232100D01*
G01Y-322500D02*
X1790400D01*
G01X2140000Y394600D02*
Y485000D01*
G01D02*
Y575400D01*
G01X2079600Y485000D02*
X2140000D01*
G01D02*
X2200400D01*
G01X1772500Y422100D02*
Y512500D01*
G01D02*
Y602900D01*
G01X1712100Y512500D02*
X1772500D01*
G01D02*
X1832900D01*
G01X2350000Y-623000D02*
Y-557500D01*
G01D02*
Y-492000D01*
G01Y-557500D02*
X2475500D01*
G01X2997500Y177200D02*
Y287700D01*
G01D02*
Y398200D01*
G01X2887000Y287700D02*
X2997500D01*
G01D02*
X3108000D01*
G01X2487000Y1147000D02*
Y1255000D01*
G01D02*
Y1363000D01*
G01X2379000Y1255000D02*
X2487000D01*
G01D02*
X2595000D01*
G54D17*
X565500Y-305100D03*
Y-240100D03*
Y-175100D03*
Y-110000D03*
Y-45000D03*
Y20000D03*
Y85000D03*
Y150100D03*
Y215100D03*
Y280100D03*
X1139500D03*
Y215100D03*
Y150100D03*
Y85000D03*
Y20000D03*
Y-45000D03*
Y-110000D03*
Y-175100D03*
Y-240100D03*
Y-305100D03*
G54D27*
G01X565500Y-240100D02*
X457500D01*
X454900Y-237500D01*
X145000D01*
X40000Y-132500D01*
Y-84600D01*
X-442100Y397500D01*
X-557500D01*
G01X565500Y-305100D02*
X457500D01*
X454900Y-302500D01*
X145000D01*
X-405000Y247500D01*
X-557500D01*
G01X212500Y87500D02*
X455000D01*
X457500Y85000D01*
X565500D01*
G01X-35000Y565000D02*
Y647200D01*
X-27500Y654700D01*
Y752500D01*
G01X157500D02*
X482500D01*
G01X1150000Y-1120000D02*
X1035000D01*
X982500Y-1067500D01*
G01X770000Y25000D02*
X700000Y-45000D01*
X565500D01*
G01X805000Y-172500D02*
X676100D01*
X673500Y-175100D01*
X565500D01*
G01X890000Y260000D02*
X693600D01*
X673500Y280100D01*
X565500D01*
G01X482500Y752500D02*
Y722500D01*
X730000Y475000D01*
X770000D01*
G01X380000Y1200000D02*
Y885000D01*
X482500Y782500D01*
Y752500D01*
G01X1335000Y-1120000D02*
Y-950300D01*
X1340000Y-945300D01*
Y-847500D01*
G01X2452500Y-820000D02*
X1587500D01*
X1525000Y-757500D01*
G01X1615000Y152500D02*
X1249900D01*
X1247500Y150100D01*
X1139500D01*
G01Y215100D02*
X1247500D01*
X1247600Y215000D01*
X1432500D01*
X1587500Y370000D01*
Y512500D01*
G01X1487500Y-45000D02*
X1139500D01*
G01X2185000Y700000D02*
X1745000D01*
X1587500Y542500D01*
Y512500D01*
G01X2325000Y275000D02*
Y485000D01*
G01X2105000Y912500D02*
X1847500D01*
X1767500Y832500D01*
G54D18*
X1725000Y1255000D03*
G54D28*
G01X-557500Y-802500D02*
Y-652500D01*
G01X142500Y-917500D02*
X-417500D01*
X-532500Y-802500D01*
X-557500D01*
G01X1155000Y-847500D02*
X212500D01*
X142500Y-917500D01*
G01X1155000Y-847500D02*
Y-736900D01*
X1152500Y-734400D01*
Y-572500D01*
X1252500Y-472500D01*
X1915000D01*
G01Y-322500D02*
Y-472500D01*
G01Y247500D02*
X2031900D01*
X2059400Y275000D01*
X2140000D01*
G54D19*
X1915000Y-322500D03*
X1730000D03*
X1917500Y-97500D03*
X1732500D03*
M02*
