G04 ================== begin FILE IDENTIFICATION RECORD ==================*
G04 Layout Name:  AC_CONTROLLER.brd*
G04 Film Name:    BOTTOM*
G04 File Format:  Gerber RS274X*
G04 File Origin:  Cadence Allegro 16.6-P004*
G04 Origin Date:  Tue Jun 01 15:10:06 2021*
G04 *
G04 Layer:  ETCH/BOTTOM*
G04 Layer:  PIN/BOTTOM*
G04 Layer:  VIA CLASS/BOTTOM*
G04 *
G04 Offset:    (0.000 0.000)*
G04 Mirror:    No*
G04 Mode:      Positive*
G04 Rotation:  0*
G04 FullContactRelief:  No*
G04 UndefLineWidth:     0.153*
G04 ================== end FILE IDENTIFICATION RECORD ====================*
%FSLAX25Y25*MOMM*%
%IR0*IPPOS*OFA0.00000B0.00000*MIA0B0*SFA1.00000B1.00000*%
%ADD10C,4.*%
%ADD11C,1.5*%
%ADD15C,1.8*%
%ADD13R,1.5X1.5*%
%ADD14R,1.8X1.8*%
%ADD16C,1.849*%
%ADD17R,1.849X1.849*%
%ADD12C,.61*%
%ADD18C,1.016*%
%ADD19C,.127*%
%ADD20C,.254*%
%ADD21C,.508*%
%ADD25C,2.108*%
%ADD22C,2.058*%
%ADD23C,4.258*%
%ADD26C,1.758*%
%ADD24R,2.106X2.106*%
G75*
%LPD*%
G75*
G36*
G01X-3140000Y-1470000D02*
G02X-3220000Y-1390000I0J80000D01*
G01Y642500D01*
X-247500D01*
Y1470000D01*
X3140000D01*
G02X3220000Y1390000I0J-80000D01*
G01Y-1390000D01*
G02X3140000Y-1470000I-80000J0D01*
G01X-3140000D01*
G37*
%LPC*%
G75*
G36*
G01X183300Y-1040900D02*
G02X106700I-38300J-79100D01*
G01Y-1022700D01*
X104200Y-1020200D01*
Y-937900D01*
G02X116900Y-882500I38304J20375D01*
G01Y28100D01*
X169600Y80800D01*
X169300Y83200D01*
G02X186900Y122500I43183J4252D01*
G01Y306900D01*
X-28300Y522100D01*
X-30700Y521800D01*
G02X8200Y560700I-4300J43200D01*
G01X7900Y558300D01*
X238100Y328100D01*
Y122500D01*
G02X208200Y44300I-25623J-35019D01*
G01X205800Y44600D01*
X168100Y6900D01*
Y-882500D01*
G02X180800Y-937900I-25604J-35025D01*
G01Y-988400D01*
X183300Y-990900D01*
Y-1040900D01*
G37*
G36*
G01X632900Y-1094400D02*
X686900D01*
X809400Y-971900D01*
Y-221000D01*
G03X804400Y-215900I-5097J4D01*
G02X848200Y-176800I608J43402D01*
G01X847900Y-179200D01*
X860600Y-191900D01*
Y-993100D01*
X708100Y-1145600D01*
X632900D01*
Y-1207900D01*
X457100D01*
Y-1032100D01*
X632900D01*
Y-1094400D01*
G37*
G36*
G01X2001000Y-1084000D02*
X2001900Y-1081100D01*
X1876700Y-955900D01*
Y-492900D01*
G02Y-452100I38300J20400D01*
G01Y227100D01*
G02Y267900I38300J20400D01*
G01Y1049100D01*
X1773700Y1152100D01*
X1622100D01*
Y1357900D01*
X1827900D01*
Y1206300D01*
X1953300Y1080900D01*
Y267900D01*
G02Y227100I-38300J-20400D01*
G01Y-452100D01*
G02Y-492900I-38300J-20400D01*
G01Y-924100D01*
X2056100Y-1026900D01*
X2059000Y-1026000D01*
G02X2001000Y-1084000I26000J-84000D01*
G37*
G36*
G01X2459400Y-873500D02*
G03X2449800Y-863300I-10202J16D01*
G02X2495700Y-824300I2716J43314D01*
G01X2495400Y-826700D01*
X2510600Y-841900D01*
Y-1022100D01*
X2572900D01*
Y-1197900D01*
X2397100D01*
Y-1022100D01*
X2459400D01*
Y-873500D01*
G37*
G36*
G01X933200Y255700D02*
X932900Y253300D01*
X1008100Y178100D01*
Y-1032500D01*
G02X956900I-25600J-35000D01*
G01Y156900D01*
X896700Y217100D01*
X894300Y216800D01*
G02X933200Y255700I-4300J43200D01*
G37*
G36*
G01X1550600Y-71900D02*
Y-722500D01*
G02X1499400I-25600J-35000D01*
G01Y-93100D01*
X1494200Y-87900D01*
X1491800Y-88200D01*
G02X1530700Y-49300I-4300J43200D01*
G01X1530400Y-51700D01*
X1550600Y-71900D01*
G37*
G36*
G01X795600Y60000D02*
G02X744400I-25600J-35000D01*
G01Y440000D01*
G02X795600I25600J35000D01*
G01Y60000D01*
G37*
G36*
G01X1619300Y195700D02*
X1621700Y195400D01*
X1741900Y315600D01*
Y797500D01*
G02X1793100I25600J35000D01*
G01Y294400D01*
X1657900Y159200D01*
X1658200Y156800D01*
G02X1619300Y195700I-43200J-4300D01*
G37*
G36*
G01X2262200Y1156300D02*
X2258600Y1155300D01*
Y737400D01*
X2227900Y706700D01*
X2228200Y704300D01*
G02X2189300Y743200I-43200J-4300D01*
G01X2191700Y742900D01*
X2207400Y758600D01*
Y1155300D01*
X2203800Y1156300D01*
G02X2262200I29200J98700D01*
G37*
G36*
G01X2069400Y1205900D02*
X2067600Y1202600D01*
X2130600Y1139600D01*
Y947500D01*
G02X2079400I-25600J-35000D01*
G01Y1118400D01*
X2031400Y1166400D01*
X2028100Y1164600D01*
G02X2069400Y1205900I-49100J90400D01*
G37*
G36*
G01X2580000Y-50000D02*
X2603800Y-26100D01*
Y542500D01*
G02X2731200I63700J0D01*
G01Y-78900D01*
X2670000Y-140000D01*
G02X2580000Y-50000I-45000J45000D01*
G37*
G54D25*
X2997500Y287700D03*
G54D22*
X2487000Y1255000D03*
G54D23*
X2920000Y1145000D03*
Y-1145000D03*
X-2920000D03*
G54D26*
X2285000Y-1110000D03*
X1885000D03*
X345000Y-1120000D03*
X-55000D03*
G54D24*
X2997500Y592500D03*
%LPD*%
G75*
G54D10*
X-2920000Y-1145000D03*
Y1145000D03*
X2920000Y-1145000D03*
Y1145000D03*
G54D20*
G01X142500Y-917500D02*
Y17500D01*
X212500Y87500D01*
G01D02*
Y317500D01*
X-35000Y565000D01*
G01X805000Y-172500D02*
X835000Y-202500D01*
Y-982500D01*
X697500Y-1120000D01*
X545000D01*
G01X982500Y-1067500D02*
Y167500D01*
X890000Y260000D01*
G01X770000Y475000D02*
Y25000D01*
G01X1525000Y-757500D02*
Y-82500D01*
X1487500Y-45000D01*
G01X1767500Y832500D02*
Y305000D01*
X1615000Y152500D01*
G01X2105000Y912500D02*
Y1129000D01*
X1979000Y1255000D01*
G01X2233000D02*
Y748000D01*
X2185000Y700000D01*
G01X2485000Y-1110000D02*
Y-852500D01*
X2452500Y-820000D01*
G54D11*
X-55000Y-1120000D03*
X145000D03*
X345000D03*
X1885000Y-1110000D03*
X2085000D03*
X2285000D03*
G54D21*
G01X142500Y-917500D02*
Y-1004300D01*
X145000Y-1006800D01*
Y-1120000D01*
G01X1915000Y-472500D02*
Y-940000D01*
X2085000Y-1110000D01*
G01X1915000Y-472500D02*
Y247500D01*
G01D02*
Y1065000D01*
X1725000Y1255000D01*
G54D12*
X142500Y-917500D03*
X212500Y87500D03*
X-35000Y565000D03*
X982500Y-1067500D03*
X770000Y25000D03*
X805000Y-172500D03*
X890000Y260000D03*
X770000Y475000D03*
X1525000Y-757500D03*
X1615000Y152500D03*
X1487500Y-45000D03*
X1915000Y-472500D03*
Y247500D03*
X1767500Y832500D03*
X2105000Y912500D03*
X2185000Y700000D03*
X2452500Y-820000D03*
X2625000Y-95000D03*
X2667500Y542500D03*
G54D13*
X545000Y-1120000D03*
X2485000Y-1110000D03*
G54D14*
X1725000Y1255000D03*
G54D15*
X2233000D03*
X1979000D03*
X2487000D03*
G54D16*
X2997500Y287700D03*
G54D17*
Y592500D03*
G54D18*
G01X2667500Y542500D02*
Y-52500D01*
X2625000Y-95000D01*
G54D19*
G01X-55000Y-1213000D02*
Y-1120000D01*
G01D02*
Y-1027000D01*
G01X-148000Y-1120000D02*
X-55000D01*
G01D02*
X38000D01*
G01X1885000Y-1203000D02*
Y-1110000D01*
G01D02*
Y-1017000D01*
G01X1792000Y-1110000D02*
X1885000D01*
G01D02*
X1978000D01*
G01X2997500Y177200D02*
Y287700D01*
G01D02*
Y398200D01*
G01X2887000Y287700D02*
X2997500D01*
G01D02*
X3108000D01*
G01X2487000Y1147000D02*
Y1255000D01*
G01D02*
Y1363000D01*
G01X2379000Y1255000D02*
X2487000D01*
G01D02*
X2595000D01*
M02*
